# xmcd CD database file
#
# Track frame offsets:
#	150
#	18429
#	38663
#	59772
#	75518
#	97749
#	113876
#	138247
#	156668
#	176318
#	200448
#	230087
#	253353
#
# Disc length: 3586 seconds
#
# Revision: 0
# Processed by: cddbd v1.5.2PL0 Copyright (c) Steve Scherf et al.
# Submitted via: CDex 1.51
#
DISCID=ad0e000d
DTITLE=Die Gluzger aus Rottenburg - N. - 9. Dixieland Jubilee 2005
DYEAR=2005
DGENRE=Jazz
TTITLE0=01 - Sweet Sue
TTITLE1=02 - Lonesome road
TTITLE2=03 - At the Jazzband Ball
TTITLE3=04 - Eh La Bas
TTITLE4=05 - Just a Gigolo
TTITLE5=06 - I'm Walking
TTITLE6=07 - Big butter and egg man
TTITLE7=08 - Up a lazy river
TTITLE8=09 - Frieder, Du Weidag
TTITLE9=10 - C´est Si Bon
TTITLE10=11 - I've found a new baby
TTITLE11=12 - Skokiaan
TTITLE12=13 - That's a plenty
EXTD=YEAR: 2005
EXTT0=
EXTT1=
EXTT2=
EXTT3=
EXTT4=
EXTT5=
EXTT6=
EXTT7=
EXTT8=
EXTT9=
EXTT10=
EXTT11=
EXTT12=
PLAYORDER=
